<svg xmlns="http://www.w3.org/2000/svg" width="16.15" height="16.832" viewBox="0 0 16.15 16.832"><defs><style>.a{fill:#e74156;}</style></defs><g transform="translate(3654.516 3866.703)"><path class="a" d="M-3639.145-3858.069a.492.492,0,0,1,0-.436l.628-1.284a1.461,1.461,0,0,0-.631-1.94l-1.262-.67a.493.493,0,0,1-.257-.353l-.247-1.408a1.46,1.46,0,0,0-1.65-1.2l-1.415.2a.491.491,0,0,1-.415-.135l-1.027-.993a1.46,1.46,0,0,0-2.04,0l-1.028.994a.492.492,0,0,1-.414.134l-1.416-.2a1.46,1.46,0,0,0-1.65,1.2l-.247,1.408a.494.494,0,0,1-.256.353l-1.263.67a1.46,1.46,0,0,0-.63,1.94l.627,1.284a.49.49,0,0,1,0,.436l-.627,1.284a1.461,1.461,0,0,0,.63,1.941l1.263.67a.492.492,0,0,1,.256.352l.247,1.408a1.46,1.46,0,0,0,1.44,1.214,1.489,1.489,0,0,0,.21-.015l1.416-.2a.493.493,0,0,1,.414.135l1.028.994a1.465,1.465,0,0,0,1.02.415,1.466,1.466,0,0,0,1.02-.415l1.027-.994a.5.5,0,0,1,.415-.135l1.415.2a1.459,1.459,0,0,0,1.65-1.2l.247-1.408a.491.491,0,0,1,.257-.352l1.262-.67a1.463,1.463,0,0,0,.631-1.941Zm-.458,2.367-1.262.67a1.46,1.46,0,0,0-.758,1.042l-.247,1.408a.492.492,0,0,1-.558.406l-1.415-.2a1.458,1.458,0,0,0-1.226.4l-1.027.994a.5.5,0,0,1-.691,0l-1.027-.994a1.456,1.456,0,0,0-1.016-.413,1.46,1.46,0,0,0-.209.015l-1.416.2a.493.493,0,0,1-.558-.406l-.247-1.408a1.459,1.459,0,0,0-.757-1.042l-1.263-.67a.493.493,0,0,1-.213-.656l.627-1.285a1.457,1.457,0,0,0,0-1.288l-.627-1.284a.494.494,0,0,1,.213-.657l1.263-.67a1.457,1.457,0,0,0,.757-1.042l.247-1.408a.5.5,0,0,1,.558-.406l1.416.2a1.457,1.457,0,0,0,1.225-.4l1.027-.994a.5.5,0,0,1,.691,0l1.027.994a1.457,1.457,0,0,0,1.225.4l1.416-.2a.494.494,0,0,1,.558.406l.247,1.408a1.456,1.456,0,0,0,.758,1.042l1.262.67a.494.494,0,0,1,.213.657l-.627,1.284a1.457,1.457,0,0,0,0,1.288l.627,1.284A.494.494,0,0,1-3639.6-3855.7Z"/><path class="a" d="M-3642.9-3861.833a.484.484,0,0,0-.686,0l-6.407,6.406a.487.487,0,0,0,0,.687.487.487,0,0,0,.343.142.486.486,0,0,0,.343-.142l6.407-6.407A.484.484,0,0,0-3642.9-3861.833Z"/><path class="a" d="M-3648.383-3862.655a1.782,1.782,0,0,0-1.78,1.78,1.782,1.782,0,0,0,1.78,1.779,1.782,1.782,0,0,0,1.78-1.779A1.782,1.782,0,0,0-3648.383-3862.655Zm0,2.588a.809.809,0,0,1-.809-.809.809.809,0,0,1,.809-.808.809.809,0,0,1,.809.808A.809.809,0,0,1-3648.383-3860.067Z"/><path class="a" d="M-3644.5-3857.478a1.782,1.782,0,0,0-1.78,1.78,1.782,1.782,0,0,0,1.78,1.779,1.782,1.782,0,0,0,1.78-1.779A1.782,1.782,0,0,0-3644.5-3857.478Zm0,2.589a.81.81,0,0,1-.809-.809.81.81,0,0,1,.809-.809.81.81,0,0,1,.809.809A.81.81,0,0,1-3644.5-3854.889Z"/></g></svg>