<svg xmlns="http://www.w3.org/2000/svg" width="25.997" height="26" viewBox="0 0 25.997 26"><defs><style>.a{fill:#e74156;}</style></defs><g transform="translate(2605.015 3795.024)"><path class="a" d="M-2579.828-3785.075a2.775,2.775,0,0,0-2.181-1.1h-1.916c-.18-4.914-3.74-8.845-8.091-8.845s-7.912,3.931-8.092,8.845h-1.916a2.775,2.775,0,0,0-2.181,1.1,3.939,3.939,0,0,0-.7,3.326l2.3,10.125a3.113,3.113,0,0,0,2.887,2.6h15.414a3.108,3.108,0,0,0,2.887-2.6l2.3-10.125a3.943,3.943,0,0,0-.706-3.326Zm-12.188-7.785c3.162,0,5.751,2.961,5.921,6.681h-11.843c.17-3.714,2.759-6.681,5.922-6.681Zm10.782,10.629-2.3,10.129c-.117.52-.451.913-.775.913h-15.419c-.324,0-.658-.393-.775-.913l-2.3-10.129c-.122-.536-.2-1.783.774-1.783h20.015c1.045,0,.9,1.247.775,1.783Z"/><path class="a" d="M-2597.391-3781.86a1.081,1.081,0,0,0-1.083,1.082v6.766a1.081,1.081,0,0,0,1.083,1.082,1.08,1.08,0,0,0,1.082-1.082v-6.766A1.08,1.08,0,0,0-2597.391-3781.86Z"/><path class="a" d="M-2592.144-3781.86a1.08,1.08,0,0,0-1.082,1.082v6.766a1.08,1.08,0,0,0,1.082,1.082,1.08,1.08,0,0,0,1.083-1.082v-6.766A1.087,1.087,0,0,0-2592.144-3781.86Z"/><path class="a" d="M-2586.9-3781.86a1.08,1.08,0,0,0-1.083,1.082v6.766a1.08,1.08,0,0,0,1.083,1.082,1.08,1.08,0,0,0,1.082-1.082v-6.766A1.083,1.083,0,0,0-2586.9-3781.86Z"/></g></svg>