<svg xmlns="http://www.w3.org/2000/svg" width="14.811" height="14.812" viewBox="0 0 14.811 14.812"><defs><style>.a{fill:#e74156;}</style></defs><g transform="translate(3806.181 3865.798)"><path class="a" d="M-3792.651-3865.8H-3804.9a1.283,1.283,0,0,0-1.282,1.282v12.248a1.283,1.283,0,0,0,1.282,1.282h12.248a1.283,1.283,0,0,0,1.281-1.282v-12.248A1.283,1.283,0,0,0-3792.651-3865.8Zm-8.545.855h4.842v6.8l-2.139-1.72a.427.427,0,0,0-.534,0l-2.169,1.727v-6.8Zm8.972,12.675a.427.427,0,0,1-.427.427H-3804.9a.428.428,0,0,1-.428-.427v-12.248a.428.428,0,0,1,.428-.427h2.848v7.69a.427.427,0,0,0,.242.385.421.421,0,0,0,.185.043.429.429,0,0,0,.266-.093l2.6-2.066,2.567,2.064a.429.429,0,0,0,.453.053.428.428,0,0,0,.242-.386v-7.69h2.849a.428.428,0,0,1,.427.427Z"/><path class="a" d="M-3800.057-3854.119h-3.418a.427.427,0,0,0-.427.427.427.427,0,0,0,.427.427h3.418a.427.427,0,0,0,.427-.427A.427.427,0,0,0-3800.057-3854.119Z"/></g></svg>