<svg xmlns="http://www.w3.org/2000/svg" width="20.566" height="22.338" viewBox="0 0 20.566 22.338">
  <path id="Контур_354" data-name="Контур 354" d="M2129.589-2651.115a.593.593,0,0,0-.056-.249.547.547,0,0,0-.382-.3l-9.6-4.658a.567.567,0,0,0-.5,0l-9.7,4.7a.569.569,0,0,0-.321.491v11.819a.564.564,0,0,0,.321.51l9.7,4.7s0,0,.009,0a.152.152,0,0,1,.043.019s.009,0,.019,0l.042.015s.01,0,.014,0,.033,0,.047.01h.015c.018,0,.042,0,.061,0a.3.3,0,0,0,.061,0h.014a.162.162,0,0,0,.047-.01s.01,0,.015,0l.042-.015c.005,0,.009,0,.019,0a.188.188,0,0,0,.042-.019c.005,0,.005,0,.01,0l9.726-4.715a.571.571,0,0,0,.321-.509V-2651.1C2129.589-2651.1,2129.589-2651.11,2129.589-2651.115Zm-10.292-4.073,8.411,4.078-3.1,1.5-8.411-4.078Zm0,8.156-8.411-4.078,4.017-1.947,8.411,4.078Zm-9.132-3.168,8.566,4.154v10.528l-8.566-4.154Zm9.7,14.682v-10.528l4.022-1.952v2.753a.567.567,0,0,0,.565.566.568.568,0,0,0,.566-.566v-3.3l3.442-1.669v10.528Z" transform="translate(-2109.033 2656.381)" fill="#00b5f1"/>
</svg>
