<svg xmlns="http://www.w3.org/2000/svg" width="331.354" height="51.289" viewBox="0 0 331.354 51.289"><defs><style>.a,.j{fill:#0b0c0d;}.b{fill:#e50019;}.c{fill:#fffdf9;}.d{fill:#ffd400;}.e{fill:#f8820a;}.f{fill:#8abb2a;}.g{fill:#ef675d;}.h{fill:#fff;}.i{fill:#e30d68;}.j,.k{fill-rule:evenodd;}.k{fill:#ffac2e;}.l{fill:#00abe9;}.m{fill:#89137d;}.n{fill:#0063b0;}.o{fill:#0092b7;}</style></defs><g transform="translate(3932.004 3815.404)"><path class="a" d="M-3911.254-3783.284c-4.45-2.316-5.4-10.439-1.913-14.383,4.044-4.578,12.834-1.333,16.167,0l1.167-9.833a57.46,57.46,0,0,0-8.363-3.659c-14.885-5.022-29.363,11.46-27.429,25.368,1.04,7.48,5.385,14.42,12.232,17.833,3.964,1.975,9.387,2.171,13.759,1.263,6.707-1.391,8.745-4.013,8.8-3.449-.314-3.148-.118-8.915-.906-15.933C-3902.068-3782.7-3907.46-3781.31-3911.254-3783.284Z"/><path class="b" d="M-3913.182-3786.619c-4.451-2.315-5.065-8.348-1.582-12.292,4.043-4.577,11.826-2.478,16.462-.935.231-3.3,1.339-10.222,1.339-10.222s-3.409-3.671-7.434-4.546c-15.35-3.335-29.363,11.46-27.428,25.368,1.039,7.48,5.385,14.42,12.232,17.833,3.964,1.975,9.386,2.171,13.759,1.263,6.706-1.391,10.248-4.012,10.3-3.449-.314-3.148-.118-8.914-.906-15.933C-3901.157-3784.606-3909.388-3784.644-3913.182-3786.619Z"/><path class="c" d="M-3901.842-3782.48a.618.618,0,0,0-.795.365c-.471,1.265-4.313,2.006-6.215,1.926a14.706,14.706,0,0,1-5.294-1.457,12.83,12.83,0,0,1-7.151-10.014,14.641,14.641,0,0,1,4.1-13.052c2.652-2.437,9.165-3.951,12.905-3a.62.62,0,0,0,.753-.447.62.62,0,0,0-.448-.753c-4.138-1.052-11.1.576-14.047,3.287a15.891,15.891,0,0,0-4.484,14.16,14.046,14.046,0,0,0,7.863,10.946,15.915,15.915,0,0,0,5.752,1.565c.224.009.513.007.846-.01,2.071-.105,5.857-.775,6.581-2.721A.619.619,0,0,0-3901.842-3782.48Z"/><path class="a" d="M-3828.905-3800.62s-4.561,13.027-6.929,18.054c-.164.35-7.609-17.157-7.873-18.4a104.341,104.341,0,0,0-12.268.679c.661,11.869.574,28.091.451,30.965a29.838,29.838,0,0,0,7.461-.054c.817-10.253,1.309-12.217,1.73-19.738,2.513,7.253,6.528,19.21,6.528,19.21l8.616-.7s2.585-8.677,4.4-14.04c.959,7.1.8,9.545,2.112,18.262,4.782-1.088,6.193-1.766,12.012-2.948-.9-11.4-2.67-21.565-3.991-33.059C-3825.384-3801.346-3828.905-3800.62-3828.905-3800.62Z"/><path class="d" d="M-3830.139-3803.23s-4.561,13.027-6.928,18.055c-.164.349-7.609-17.158-7.874-18.4a104.3,104.3,0,0,0-12.268.679c.661,11.869.574,28.091.451,30.965a26.047,26.047,0,0,0,6.969-.054c.816-10.253,1.308-12.217,1.729-19.737,2.513,7.252,7.021,19.209,7.021,19.209l8.616-.7s2.586-8.677,4.4-14.04c.96,7.1.8,9.545,2.113,18.262,4.782-1.088,5.409-1.008,11.229-2.19-.9-11.4-2.67-21.565-3.992-33.059A108.794,108.794,0,0,1-3830.139-3803.23Z"/><path class="c" d="M-3821.093-3783.47c-1.4-9.739-2.425-16.71-2.909-17.692l-.349-.71-.377.7c-.627,1.16-2.048,4.262-3.7,7.854-2.809,6.129-6.95,15.165-8.433,17.179-.976-1.517-4-6.985-6.7-11.872-3.4-6.165-6.621-11.988-7.279-12.779l-.559-.671-.157.859c-.463,2.525-.942,8.681-1.405,14.635-.327,4.2-.665,8.538-.992,11.544a.409.409,0,0,0,.363.451.408.408,0,0,0,.45-.362c.329-3.019.667-7.366.994-11.57.407-5.23.826-10.617,1.231-13.521,1.246,2.045,4.084,7.183,6.639,11.81,4.058,7.349,6.56,11.851,7.075,12.406l.262.283.3-.246c1.179-.973,4.6-8.312,8.952-17.8,1.308-2.855,2.474-5.4,3.2-6.888.589,2.692,1.674,10.255,2.572,16.514.658,4.582,1.279,8.91,1.66,11.06a.409.409,0,0,0,.431.337l.043-.006a.409.409,0,0,0,.331-.473C-3819.817-3774.573-3820.437-3778.9-3821.093-3783.47Z"/><path class="a" d="M-3884.046-3779.442l-9.346,12.741,10.636-1.181,5.655-10.8c.984-.046,1.951-.133,2.874-.245.827,3.673.381,6.379,1.257,11.046,2.945.065,6.944.3,11.8.05l-.871-33.02c-9.765-1.162-23.421-3.656-28.338,5.3-2.269,4.134-1.072,10.871,2.526,14A10.865,10.865,0,0,0-3884.046-3779.442Zm1.018-11.515c-.093-4.349,5.469-3.491,8.095-3.463,0,0,.61,8.289.7,9.159C-3876.724-3784.72-3882.911-3785.486-3883.028-3790.957Z"/><path class="e" d="M-3884.276-3781.711l-9.346,12.741,10.636-1.181,5.654-10.8c.985-.046,1.952-.134,2.875-.245.091.192,1.258,11.046,1.258,11.046,2.944.065,6.111.123,10.187-.127l-.872-33.019c-8.98-1.162-21.806-3.48-26.722,5.48-2.269,4.134-1.072,10.87,2.526,14A10.865,10.865,0,0,0-3884.276-3781.711Zm1.018-11.515c-.093-4.349,5.469-3.491,8.1-3.463,0,0,.609,8.289.694,9.159C-3876.954-3786.989-3883.141-3787.755-3883.258-3793.226Z"/><path class="c" d="M-3870.293-3801.814a.357.357,0,0,1,.391.319c.259,2.558.61,10.364.851,16.817.13,3.46.236,6.712.3,9.156.109,4.261.109,4.261-.214,4.37a.354.354,0,0,1-.078.016.356.356,0,0,1-.374-.241.36.36,0,0,1,0-.225c.147-1.361-.722-25.187-1.192-29.821A.357.357,0,0,1-3870.293-3801.814Z"/><path class="c" d="M-3872.354-3801.6a.356.356,0,0,1,.325.385.356.356,0,0,1-.384.325c-2.175-.182-9.537-.482-12.934,3.317-1.526,1.705-2.009,4.038-1.437,6.934.507,2.57,2.5,4.391,5.919,5.412a25.905,25.905,0,0,0,7.572.881.356.356,0,0,1,.364.348.356.356,0,0,1-.32.363l-.028,0a26.686,26.686,0,0,1-7.791-.911c-3.694-1.1-5.853-3.107-6.415-5.957-.618-3.127-.078-5.667,1.6-7.547C-3882.261-3802.092-3874.612-3801.788-3872.354-3801.6Z"/><path class="c" d="M-3884.229-3776.728a56.2,56.2,0,0,0,3.579-5.525.357.357,0,0,1,.476-.167.356.356,0,0,1,.166.476,56.091,56.091,0,0,1-3.635,5.622c-1.308,1.887-2.66,3.838-3.577,5.38a.356.356,0,0,1-.271.172.356.356,0,0,1-.218-.048.357.357,0,0,1-.124-.489C-3886.9-3772.87-3885.543-3774.831-3884.229-3776.728Z"/><path class="a" d="M-3787.394-3788.9l-6.939-.812c-.985.038-1.952.118-2.876.223a30.36,30.36,0,0,1-.57-5.155c-.051-1,14.041-.624,14.041-.624s-.54-6.089-.654-6.8c-.036-.227-13.946,1.764-13.989,1.527-2.944-.088-6.111-.17-10.973.042l.616,33.025c9.755,1.238,22.563,3.654,27.549-5.267,2.3-4.117,1.156-10.862-2.418-14.019A10.847,10.847,0,0,0-3787.394-3788.9Zm-1.108,11.506c.06,4.349-5.5,3.448-8.122,3.4,0,0-.545-8.293-.623-9.163C-3794.757-3783.678-3788.576-3782.864-3788.5-3777.393Z"/><path class="f" d="M-3785.219-3788.527a10.849,10.849,0,0,0-3.787-2.136,28.459,28.459,0,0,0-9.815-.589c-.044-.095-.328-2.77-.606-5.464,3.3.073,14.233-.255,14.233-.255.339-2.325-.594-4.575-.584-6.733-6.081.138-18.425.267-24.772,0l.514,9.872h.013l.459,24.593c8.97,1.232,21.777,3.648,26.763-5.273C-3780.5-3778.625-3781.644-3785.37-3785.219-3788.527Zm-13.016,12.77s-.546-8.293-.624-9.163c2.49-.522,8.671.291,8.746,5.763C-3790.054-3774.807-3795.609-3775.708-3798.235-3775.757Z"/><path class="c" d="M-3803.145-3770.67a.356.356,0,0,1-.388-.321c-.239-2.561-.53-10.369-.721-16.823-.1-3.461-.183-6.714-.227-9.158-.076-4.263-.076-4.263.248-4.368a.356.356,0,0,1,.078-.017.357.357,0,0,1,.372.245.355.355,0,0,1,0,.225c-.157,1.36.528,25.192.962,29.829A.357.357,0,0,1-3803.145-3770.67Z"/><path class="c" d="M-3801.082-3770.869a.356.356,0,0,1-.322-.387.356.356,0,0,1,.387-.322c2.174.2,9.532.556,12.96-3.217,1.538-1.693,2.039-4.022,1.49-6.922-.488-2.574-2.465-4.411-5.878-5.459a25.948,25.948,0,0,0-7.564-.939.355.355,0,0,1-.361-.351.355.355,0,0,1,.322-.36h.028a26.634,26.634,0,0,1,7.784.97c3.686,1.132,5.828,3.153,6.369,6.007.593,3.132.034,5.667-1.663,7.534C-3791.179-3770.3-3798.825-3770.662-3801.082-3770.869Z"/><path class="c" d="M-3795.522-3801.077a56.066,56.066,0,0,0-6.579.175.357.357,0,0,1-.407-.3.356.356,0,0,1,.3-.406,56.271,56.271,0,0,1,6.692-.183c2.3.011,4.67.022,6.46-.094a.354.354,0,0,1,.3.125.357.357,0,0,1,.084.207.356.356,0,0,1-.333.379C-3790.826-3801.055-3793.213-3801.067-3795.522-3801.077Z"/><path class="a" d="M-3609.648-3789.809c-.7-3.561,6.281-2.859,6.289-3.486.056-4.288.482-5.864.526-9.237-9.371-.179-17.718,3.083-17.924,8.344-.4,10.224,7.171,9.515,6.979,13.1-.145,2.711-4.712,3.866-7.3,2.785.121.051-.959,9.281-.829,10.047,5.811-.144,22.129.114,21.217-12.37C-3601.3-3788.98-3609.215-3787.614-3609.648-3789.809Z"/><path class="g" d="M-3610.517-3792.173c-.7-3.56,5.124-2.858,5.133-3.486.056-4.287.481-5.863.525-9.237-9.37-.178-16.56,3.083-16.767,8.344-.4,10.225,7.172,9.515,6.979,13.1-.144,2.71-4.712,3.865-7.3,2.784.121.051-.959,9.281-.829,10.048,5.811-.145,22.129.113,21.218-12.37C-3602.166-3791.344-3610.084-3789.978-3610.517-3792.173Z"/><path class="h" d="M-3611.817-3788.853c-2.427-1.383-4.523-2.579-4.627-5.628a4.849,4.849,0,0,1,3.482-4.878c2.267-.865,4.464-.582,4.752-.287a.432.432,0,0,0,.532.249.425.425,0,0,0,.278-.536c-.283-.869-2.31-1.015-4.073-.709-1.409.243-6,1.409-5.832,6.19.121,3.523,2.631,4.953,5.058,6.337,2.541,1.448,4.94,2.816,5.271,6.432a3.653,3.653,0,0,1-1.179,3.235c-2.741,2.5-9.144,2.08-11.171,1.735a.43.43,0,0,0-.5.347.427.427,0,0,0,.351.492,23.568,23.568,0,0,0,3.742.281c2.8,0,6.223-.46,8.159-2.229a4.508,4.508,0,0,0,1.452-3.938C-3606.49-3785.816-3609.32-3787.43-3611.817-3788.853Z"/><path class="a" d="M-3639.6-3800.668s-.174,12.116-.85,13.715c-.563-2.132-4.167-14.684-4.019-14.725a115.634,115.634,0,0,1-13.811.092l11.45,26.419s-3.8,9.415-4.669,11.04c2.174.066,13.335-.172,13.335-.172,9.208-23.371,12.358-29.736,15.27-36.668C-3624.877-3801.081-3639.6-3800.668-3639.6-3800.668Z"/><path class="i" d="M-3639.64-3803.229s-2.862,12.662-3.539,14.261c-.562-2.132-4.166-14.684-4.019-14.725-5.837.534-12.325.836-12.325.836l11.45,26.419s-2.593,8.125-3.465,9.75c2.173.066,11.933-.172,11.933-.172,9.208-23.371,12.358-29.736,15.27-36.668C-3626.315-3803.642-3639.64-3803.229-3639.64-3803.229Z"/><path class="h" d="M-3641.87-3776.841c-.164-.375-.4-.918-.7-1.593-.6-1.348-1.437-3.222-2.382-5.334-3.226-7.219-7.647-17.106-8.1-18.384a.451.451,0,0,0-.574-.274.445.445,0,0,0-.276.568c.463,1.312,4.892,11.218,8.125,18.451,1.514,3.385,2.847,6.367,3.217,7.226a.446.446,0,0,0,.041.139c.054.112.2.413.475.413a.476.476,0,0,0,.2-.048c.4-.181.224-.593.168-.728C-3641.724-3776.5-3641.787-3776.652-3641.87-3776.841Z"/><path class="h" d="M-3631.676-3802.169a.452.452,0,0,0-.6.206c-.891,1.819-3.884,9.417-6.779,16.764-2.836,7.2-5.77,14.645-6.667,16.511a.442.442,0,0,0,.212.594.446.446,0,0,0,.193.043.45.45,0,0,0,.407-.253c.912-1.9,3.721-9.024,6.694-16.571,2.889-7.331,5.875-14.912,6.75-16.7A.443.443,0,0,0-3631.676-3802.169Z"/><path class="j" d="M-3751.072-3767.951l-.058.049.061-.046v0Z"/><path class="a" d="M-3748-3782.179c-.031-2.4.159-4.745.142-7.144-.036-4.878-1.225-11.821-12.549-11.821-11.659,0-10.6,7.852-10.6,7.852a33.811,33.811,0,0,0,6.613,1.842c.181-2.245.836-2.809,2.763-2.245,3.219.943,2.92,3.56,2.876,4.757a4.289,4.289,0,0,0-1.038-.565c-4.607-1.794-12.026.353-15.093,3.615-3.614,3.845-4.19,9.96-.656,13.989,4.131,4.71,14.465,3.843,17.786-1.131,1.272,6.523,9.886,3.778,11.585,3.071.123-.05.341-4.919.335-4.922S-3747.907-3774.927-3748-3782.179Zm-11.378,6.557s-3.839,2.315-5.888.457c-4.043-3.665,1.317-8.717,5.934-7.3.014.025.028.05.045.074s.037.039.055.058A54.537,54.537,0,0,0-3759.378-3775.622Z"/><path class="k" d="M-3751.941-3772.234l-.059.049.061-.046v0Z"/><path class="l" d="M-3750.15-3784.193c-.031-2.4.159-4.745.142-7.145-.036-4.878-.325-11.82-11.649-11.82-11.66,0-10.6,7.851-10.6,7.851a33.825,33.825,0,0,0,6.613,1.842c.182-2.245.837-2.809,2.764-2.245,3.218.943,2.92,3.56,2.875,4.758a4.3,4.3,0,0,0-1.038-.566c-4.607-1.793-12.026.354-15.092,3.616-3.614,3.845-4.191,9.959-.657,13.988,4.132,4.71,14.465,3.844,17.787-1.131,1.271,6.523,8.928,3.778,10.627,3.072.123-.051.3-4.338.352-4.914l-.016-.008C-3748.06-3776.905-3750.057-3776.942-3750.15-3784.193Zm-10.479,6.557s-3.838,2.315-5.888.457c-4.042-3.666,1.317-8.718,5.935-7.3a.709.709,0,0,0,.045.073.777.777,0,0,0,.054.059A54.537,54.537,0,0,0-3760.629-3777.636Z"/><path class="h" d="M-3751.938-3774.381a2.954,2.954,0,0,1-2.3-.92c-1.713-1.857-1.322-6.153-1.134-8.218l.033-.355c.091-1.035.3-2.264.526-3.564a29,29,0,0,0,.662-6.655c-.392-4.76-3.046-7.5-7.09-7.336-3.576.147-7.083,2.616-7.08,4.986a.428.428,0,0,0,.431.425h0a.428.428,0,0,0,.43-.426c0-1.921,3.154-4.007,6.255-4.134,1.694-.071,5.691.43,6.2,6.554a28.5,28.5,0,0,1-.652,6.442c-.227,1.319-.442,2.564-.536,3.634l-.032.353c-.214,2.353-.614,6.735,1.356,8.868a3.824,3.824,0,0,0,2.938,1.2.428.428,0,0,0,.43-.426A.428.428,0,0,0-3751.938-3774.381Z"/><path class="h" d="M-3769.04-3788.026a13,13,0,0,1,12.88,3,.432.432,0,0,0,.608.022.423.423,0,0,0,.022-.6,13.928,13.928,0,0,0-13.8-3.226,8.29,8.29,0,0,0-5.762,7.65c-.263,3.738,1.087,6.405,3.8,7.508a8.194,8.194,0,0,0,3.092.558,13.739,13.739,0,0,0,4.748-.933,19.57,19.57,0,0,0,7.8-5.437.423.423,0,0,0-.045-.6.434.434,0,0,0-.607.045c-4.084,4.7-10.661,7.207-14.661,5.58-2.377-.966-3.508-3.27-3.269-6.661A7.477,7.477,0,0,1-3769.04-3788.026Z"/><path class="a" d="M-3664.464-3796.756a10.865,10.865,0,0,0-2.3-1.28,15.562,15.562,0,0,0-12.945.464c-3.425,1.57-5.595,4.359-7.047,7.871a16.693,16.693,0,0,0-.045,13.482c2.446,5.1,8.186,8.888,13.9,8.413.18-.015.358-.033.536-.054,8.662-1.037,13.29-9.34,12.847-17.6C-3659.736-3789.574-3661.167-3794.1-3664.464-3796.756Zm-4.928,12.229c-.149,2.63-1.68,5.491-3.795,5.967-2.507.564-4.019-1.577-4.46-3.9a6.34,6.34,0,0,1,.292-3.654c.851-1.851,3.477-3.525,5.56-2.858C-3669.964-3788.387-3669.279-3786.524-3669.392-3784.527Z"/><path class="m" d="M-3664.684-3799.836a10.868,10.868,0,0,0-2.3-1.28,15.561,15.561,0,0,0-12.945.464c-3.426,1.57-5.6,4.359-7.048,7.871a16.693,16.693,0,0,0-.044,13.482c2.446,5.1,8.186,8.888,13.9,8.413.179-.015.357-.032.535-.054,8.663-1.037,13.291-9.34,12.848-17.6C-3659.956-3792.654-3661.388-3797.183-3664.684-3799.836Zm-4.929,12.229c-.148,2.63-1.68,5.491-3.794,5.967-2.507.564-4.019-1.577-4.461-3.9a6.335,6.335,0,0,1,.293-3.655c.851-1.851,3.477-3.524,5.559-2.858C-3670.185-3791.467-3669.5-3789.6-3669.613-3787.607Z"/><path class="h" d="M-3673.321-3797.3c-.178.012-.361.031-.544.054h-.01a9.787,9.787,0,0,0-6.765,3.533,11.745,11.745,0,0,0-2.868,8.237c.412,5.129,3.436,10.163,9.261,9.847.053,0,.1-.011.158-.01a10.613,10.613,0,0,0,9.539-10.049c.145-2.771.054-5.912-1.726-8.2A7.713,7.713,0,0,0-3673.321-3797.3Zm7.808,11.562a9.635,9.635,0,0,1-8.646,9.136l-.14.009c-5.531.3-7.9-4.639-8.247-8.96a10.753,10.753,0,0,1,2.638-7.532,8.845,8.845,0,0,1,6.1-3.2l.049,0c.17-.022.34-.039.505-.051a6.747,6.747,0,0,1,6.215,3.048C-3665.453-3791.261-3665.378-3788.336-3665.513-3785.742Z"/><path class="a" d="M-3684.783-3812.369c-10.985-.653-24.811,1.206-34.629,1.083.29,1.474,1.815,9.214,2.363,11.563,3.106-.083,6.192-.068,9.262-.016,1.668,12.278,1.666,21.226,2.841,31.437,2.622-.423,6.728-1.73,9.545-1.616l.475-29.52c3.548.07,7.073.1,10.573-.015C-3684.02-3803.859-3684.934-3808.086-3684.783-3812.369Z"/><path class="n" d="M-3686.509-3815.265c-10.985-.653-24.812,1.207-34.63,1.084.291,1.474,1.816,9.214,2.364,11.563,3.1-.083,6.191-.068,9.262-.016,1.668,12.277,1.666,21.226,2.841,31.437,2.622-.423,6.727-1.73,9.544-1.616l.476-29.52c3.547.07,7.073.1,10.572-.015C-3685.747-3806.754-3686.66-3810.982-3686.509-3815.265Z"/><path class="c" d="M-3689.888-3809.116c-2.865.154-18.785.486-25.164.27a.451.451,0,0,0-.468.437.452.452,0,0,0,.437.468c6.4.217,22.37-.116,25.244-.271a.452.452,0,0,0,.428-.476A.453.453,0,0,0-3689.888-3809.116Z"/><path class="c" d="M-3703.4-3807.794a.454.454,0,0,0-.323-.554.452.452,0,0,0-.553.322c-.227.86.1,6.613.642,15.926.449,7.642.912,15.545.772,17.655a.453.453,0,0,0,.422.482h.055a.453.453,0,0,0,.427-.422c.144-2.167-.321-10.1-.771-17.768C-3703.142-3799.126-3703.606-3807.031-3703.4-3807.794Z"/><path class="a" d="M-3738-3790.11s.115,2.676.165,6.727c8.747.091,14.117.272,23.1.174.259-2.578.066-3.075-.053-8.121Z"/><path class="o" d="M-3738.875-3792.18s.114,2.677.165,6.728c8.747.091,14.117.272,23.1.174.259-2.578.065-3.075-.053-8.121Z"/><path class="h" d="M-3717.621-3789.72c-2.671.329-16.711.67-19.734.67a.4.4,0,0,0-.4.4.4.4,0,0,0,.4.4c3.034,0,17.136-.343,19.832-.676a.4.4,0,0,0,.347-.444A.4.4,0,0,0-3717.621-3789.72Z"/></g></svg>