<svg xmlns="http://www.w3.org/2000/svg" width="12.163" height="17.299" viewBox="0 0 12.163 17.299"><defs><style>.a{fill:#e74156;}</style></defs><g transform="translate(3932.005 3867.836)"><path class="a" d="M-3925.923-3867.836a6.088,6.088,0,0,0-6.082,6.081,6.069,6.069,0,0,0,.908,3.2l4.828,7.78a.506.506,0,0,0,.43.24h0a.508.508,0,0,0,.431-.247l4.7-7.855a6.066,6.066,0,0,0,.858-3.116A6.088,6.088,0,0,0-3925.923-3867.836Zm4.354,8.677-4.278,7.141-4.389-7.073a5.063,5.063,0,0,1-.762-2.664,5.085,5.085,0,0,1,5.075-5.074,5.082,5.082,0,0,1,5.071,5.074A5.065,5.065,0,0,1-3921.569-3859.159Z"/><path class="a" d="M-3925.923-3864.795a3.044,3.044,0,0,0-3.041,3.04,3.037,3.037,0,0,0,3.041,3.041,3.035,3.035,0,0,0,3.041-3.041A3.045,3.045,0,0,0-3925.923-3864.795Zm0,5.074a2.035,2.035,0,0,1-2.034-2.034,2.042,2.042,0,0,1,2.034-2.034,2.038,2.038,0,0,1,2.03,2.034A2.031,2.031,0,0,1-3925.923-3859.721Z"/></g></svg>