<svg xmlns="http://www.w3.org/2000/svg" width="23.986" height="30.053" viewBox="0 0 23.986 30.053">
  <g id="Сгруппировать_525" data-name="Сгруппировать 525" transform="translate(-2109.033 2766.328)">
    <path id="Контур_351" data-name="Контур 351" d="M2120-2736.717a1.419,1.419,0,0,0,1.027.442,1.419,1.419,0,0,0,1.027-.442,80.569,80.569,0,0,0,6.347-7.572c3.065-4.219,4.619-7.594,4.619-10.029a12.015,12.015,0,0,0-11.993-12.01,12.015,12.015,0,0,0-11.993,12.01c0,2.435,1.554,5.81,4.619,10.029A80.722,80.722,0,0,0,2120-2736.717Zm1.027-28.493a10.9,10.9,0,0,1,10.875,10.892c0,2.164-1.523,5.405-4.4,9.373a79.68,79.68,0,0,1-6.254,7.459.3.3,0,0,1-.216.094.3.3,0,0,1-.216-.094,79.834,79.834,0,0,1-6.254-7.459c-2.882-3.968-4.405-7.21-4.405-9.373A10.9,10.9,0,0,1,2121.026-2765.21Z" fill="#00b5f1"/>
    <path id="Контур_352" data-name="Контур 352" d="M2126.9-2753.048a.56.56,0,0,0-.436-.659.559.559,0,0,0-.66.435,4.888,4.888,0,0,1-4.773,3.9,4.882,4.882,0,0,1-4.872-4.88,4.882,4.882,0,0,1,4.872-4.88,4.9,4.9,0,0,1,4.683,3.527.559.559,0,0,0,.691.382.558.558,0,0,0,.383-.691,6.018,6.018,0,0,0-5.757-4.336,6,6,0,0,0-5.99,6,6,6,0,0,0,5.99,6A6.01,6.01,0,0,0,2126.9-2753.048Z" fill="#00b5f1"/>
    <path id="Контур_353" data-name="Контур 353" d="M2120.418-2740.712a.852.852,0,0,0,.608.259.851.851,0,0,0,.608-.259,61.7,61.7,0,0,0,4.709-5.527c2.52-3.382,3.8-6.08,3.8-8.017a9.132,9.132,0,0,0-9.115-9.128,9.132,9.132,0,0,0-9.115,9.128c0,1.938,1.278,4.635,3.8,8.017A61.717,61.717,0,0,0,2120.418-2740.712Zm.608-21.553a8.012,8.012,0,0,1,8,8.009c0,3.1-4.263,8.651-8,12.563-3.735-3.912-8-9.467-8-12.563A8.011,8.011,0,0,1,2121.026-2762.265Z" fill="#00b5f1"/>
  </g>
</svg>
