<svg xmlns="http://www.w3.org/2000/svg" width="132" height="20.583" viewBox="0 0 132 20.583">
  <g id="Сгруппировать_213" data-name="Сгруппировать 213" transform="translate(3823.799 2563.986)">
    <g id="Сгруппировать_208" data-name="Сгруппировать 208">
      <path id="Контур_147" data-name="Контур 147" d="M-3811.886-2563.313c.714,1.146,1.472,2.464,2.226,3.87a2.822,2.822,0,0,0,1.988,1.442c1.5.27,2.921.556,4.175.847a1.424,1.424,0,0,1,.776,2.294c-.882,1.065-1.874,2.205-2.967,3.369a2.825,2.825,0,0,0-.742,2.275c.186,1.517.334,2.95.446,4.267a1.424,1.424,0,0,1-1.957,1.439c-1.345-.553-2.553-1.186-3.926-1.859a2.813,2.813,0,0,0-2.449-.013c-1.369.651-2.656,1.278-3.911,1.811A1.425,1.425,0,0,1-3820.2-2545c.112-1.3.257-2.717.442-4.214a2.822,2.822,0,0,0-.743-2.275c-1.092-1.164-2.084-2.3-2.966-3.369a1.424,1.424,0,0,1,.775-2.295c1.254-.29,2.675-.576,4.176-.846a2.819,2.819,0,0,0,1.987-1.442c.754-1.406,1.512-2.724,2.227-3.87A1.424,1.424,0,0,1-3811.886-2563.313Z" fill="#ffd400"/>
      <path id="Контур_148" data-name="Контур 148" d="M-3815.854-2555.428c3.253-1.813,4.558-6.916,4.558-6.916-.2-.334-.4-.658-.59-.969a1.424,1.424,0,0,0-2.42,0c-.715,1.146-1.472,2.464-2.227,3.87a2.819,2.819,0,0,1-1.987,1.442c-1.5.27-2.922.556-4.176.847a1.423,1.423,0,0,0-.775,2.294c.882,1.065,1.874,2.205,2.966,3.369a2.822,2.822,0,0,1,.743,2.275c-.185,1.5-.33,2.912-.442,4.214a1.425,1.425,0,0,0,1.977,1.431c1.042-.442,2.107-.95,3.222-1.483C-3815.69-2549.744-3818.473-2553.968-3815.854-2555.428Z" fill="#ffc200"/>
    </g>
    <g id="Сгруппировать_209" data-name="Сгруппировать 209">
      <path id="Контур_149" data-name="Контур 149" d="M-3784.238-2563.313c.715,1.146,1.473,2.464,2.227,3.87a2.819,2.819,0,0,0,1.987,1.442c1.5.27,2.922.556,4.176.847a1.423,1.423,0,0,1,.775,2.294c-.881,1.065-1.873,2.205-2.966,3.369a2.818,2.818,0,0,0-.742,2.275c.186,1.517.333,2.95.445,4.267a1.424,1.424,0,0,1-1.956,1.439c-1.345-.553-2.554-1.186-3.926-1.859a2.815,2.815,0,0,0-2.45-.013c-1.369.651-2.655,1.278-3.911,1.811a1.424,1.424,0,0,1-1.976-1.431c.111-1.3.257-2.717.441-4.214a2.818,2.818,0,0,0-.742-2.275c-1.093-1.164-2.085-2.3-2.966-3.369a1.424,1.424,0,0,1,.775-2.295c1.254-.29,2.675-.576,4.176-.846a2.819,2.819,0,0,0,1.987-1.442c.754-1.406,1.512-2.724,2.226-3.87A1.424,1.424,0,0,1-3784.238-2563.313Z" fill="#ffd400"/>
      <path id="Контур_150" data-name="Контур 150" d="M-3788.205-2555.428c3.252-1.813,4.557-6.916,4.557-6.916-.2-.334-.4-.658-.589-.969a1.425,1.425,0,0,0-2.421,0c-.714,1.146-1.472,2.464-2.226,3.87a2.819,2.819,0,0,1-1.987,1.442c-1.5.27-2.922.556-4.176.847a1.423,1.423,0,0,0-.775,2.294c.881,1.065,1.873,2.205,2.966,3.369a2.818,2.818,0,0,1,.742,2.275c-.184,1.5-.329,2.912-.441,4.214a1.424,1.424,0,0,0,1.976,1.431c1.043-.442,2.108-.95,3.223-1.483C-3788.041-2549.744-3790.825-2553.968-3788.205-2555.428Z" fill="#ffc200"/>
    </g>
    <g id="Сгруппировать_210" data-name="Сгруппировать 210">
      <path id="Контур_151" data-name="Контур 151" d="M-3701.291-2563.313c.714,1.146,1.472,2.464,2.226,3.87a2.823,2.823,0,0,0,1.987,1.442c1.5.27,2.922.556,4.176.847a1.423,1.423,0,0,1,.775,2.294c-.881,1.065-1.873,2.205-2.966,3.369a2.821,2.821,0,0,0-.742,2.275c.186,1.517.334,2.95.446,4.267a1.424,1.424,0,0,1-1.957,1.439c-1.345-.553-2.554-1.186-3.926-1.859a2.813,2.813,0,0,0-2.449-.013c-1.369.651-2.656,1.278-3.911,1.811a1.425,1.425,0,0,1-1.977-1.431c.112-1.3.257-2.717.442-4.214a2.822,2.822,0,0,0-.743-2.275c-1.092-1.164-2.085-2.3-2.966-3.369a1.424,1.424,0,0,1,.775-2.295c1.254-.29,2.675-.576,4.176-.846a2.819,2.819,0,0,0,1.987-1.442c.754-1.406,1.512-2.724,2.227-3.87A1.424,1.424,0,0,1-3701.291-2563.313Z" fill="#ffd400"/>
      <path id="Контур_152" data-name="Контур 152" d="M-3705.259-2555.428c3.252-1.813,4.558-6.916,4.558-6.916-.2-.334-.4-.658-.59-.969a1.424,1.424,0,0,0-2.42,0c-.715,1.146-1.473,2.464-2.227,3.87a2.819,2.819,0,0,1-1.987,1.442c-1.5.27-2.922.556-4.176.847a1.423,1.423,0,0,0-.775,2.294c.881,1.065,1.874,2.205,2.966,3.369a2.822,2.822,0,0,1,.743,2.275c-.185,1.5-.33,2.912-.442,4.214a1.425,1.425,0,0,0,1.977,1.431c1.042-.442,2.107-.95,3.222-1.483C-3705.095-2549.744-3707.878-2553.968-3705.259-2555.428Z" fill="#ffc200"/>
    </g>
    <g id="Сгруппировать_211" data-name="Сгруппировать 211">
      <path id="Контур_153" data-name="Контур 153" d="M-3756.589-2563.313c.715,1.146,1.473,2.464,2.227,3.87a2.819,2.819,0,0,0,1.987,1.442c1.5.27,2.922.556,4.176.847a1.424,1.424,0,0,1,.775,2.294c-.882,1.065-1.874,2.205-2.966,3.369a2.822,2.822,0,0,0-.743,2.275c.187,1.517.334,2.95.446,4.267a1.424,1.424,0,0,1-1.957,1.439c-1.344-.553-2.553-1.186-3.925-1.859a2.815,2.815,0,0,0-2.45-.013c-1.369.651-2.656,1.278-3.911,1.811a1.424,1.424,0,0,1-1.976-1.431c.111-1.3.257-2.717.441-4.214a2.825,2.825,0,0,0-.742-2.275c-1.093-1.164-2.085-2.3-2.967-3.369a1.425,1.425,0,0,1,.776-2.295c1.254-.29,2.674-.576,4.175-.846a2.822,2.822,0,0,0,1.988-1.442c.754-1.406,1.512-2.724,2.226-3.87A1.424,1.424,0,0,1-3756.589-2563.313Z" fill="#ffd400"/>
      <path id="Контур_154" data-name="Контур 154" d="M-3760.556-2555.428c3.252-1.813,4.557-6.916,4.557-6.916-.2-.334-.4-.658-.59-.969a1.424,1.424,0,0,0-2.42,0c-.714,1.146-1.472,2.464-2.226,3.87a2.822,2.822,0,0,1-1.988,1.442c-1.5.27-2.921.556-4.175.847a1.423,1.423,0,0,0-.775,2.294c.881,1.065,1.873,2.205,2.966,3.369a2.825,2.825,0,0,1,.742,2.275c-.184,1.5-.33,2.912-.441,4.214a1.424,1.424,0,0,0,1.976,1.431c1.043-.442,2.107-.95,3.222-1.483C-3760.392-2549.744-3763.176-2553.968-3760.556-2555.428Z" fill="#ffc200"/>
    </g>
    <g id="Сгруппировать_212" data-name="Сгруппировать 212">
      <path id="Контур_155" data-name="Контур 155" d="M-3728.94-2563.313c.714,1.146,1.472,2.464,2.227,3.87a2.819,2.819,0,0,0,1.987,1.442c1.5.27,2.921.556,4.175.847a1.424,1.424,0,0,1,.776,2.294c-.882,1.065-1.874,2.205-2.967,3.369a2.825,2.825,0,0,0-.742,2.275c.187,1.517.334,2.95.446,4.267a1.424,1.424,0,0,1-1.957,1.439c-1.344-.553-2.553-1.186-3.926-1.859a2.813,2.813,0,0,0-2.449-.013c-1.369.651-2.656,1.278-3.911,1.811a1.424,1.424,0,0,1-1.976-1.431c.111-1.3.257-2.717.441-4.214a2.823,2.823,0,0,0-.743-2.275c-1.092-1.164-2.084-2.3-2.966-3.369a1.424,1.424,0,0,1,.776-2.295c1.253-.29,2.674-.576,4.175-.846a2.819,2.819,0,0,0,1.987-1.442c.755-1.406,1.512-2.724,2.227-3.87A1.425,1.425,0,0,1-3728.94-2563.313Z" fill="#ffd400"/>
      <path id="Контур_156" data-name="Контур 156" d="M-3732.907-2555.428c3.252-1.813,4.557-6.916,4.557-6.916-.2-.334-.4-.658-.59-.969a1.425,1.425,0,0,0-2.42,0c-.714,1.146-1.472,2.464-2.227,3.87a2.819,2.819,0,0,1-1.987,1.442c-1.5.27-2.922.556-4.175.847a1.424,1.424,0,0,0-.776,2.294c.882,1.065,1.874,2.205,2.967,3.369a2.826,2.826,0,0,1,.742,2.275c-.184,1.5-.33,2.912-.441,4.214a1.424,1.424,0,0,0,1.976,1.431c1.042-.442,2.107-.95,3.222-1.483C-3732.743-2549.744-3735.527-2553.968-3732.907-2555.428Z" fill="#ffc200"/>
    </g>
  </g>
</svg>
