<svg xmlns="http://www.w3.org/2000/svg" width="25" height="25" viewBox="0 0 25 25"><defs><style>.a{fill:#faa987;}</style></defs><g transform="translate(2867.838 3797.575)"><path class="a" d="M-2860.935-3791.885a.923.923,0,0,0-1.306,0,6.31,6.31,0,0,0-1.806,5.116.924.924,0,0,0,.918.832c.031,0,.062,0,.093,0a.924.924,0,0,0,.827-1.011,4.47,4.47,0,0,1,1.274-3.627A.924.924,0,0,0-2860.935-3791.885Z"/><path class="a" d="M-2857.278-3797.575a10.572,10.572,0,0,0-10.56,10.561,10.571,10.571,0,0,0,10.56,10.56,10.572,10.572,0,0,0,10.561-10.56A10.573,10.573,0,0,0-2857.278-3797.575Zm0,19.274a8.723,8.723,0,0,1-8.713-8.713,8.723,8.723,0,0,1,8.713-8.713,8.723,8.723,0,0,1,8.713,8.713A8.723,8.723,0,0,1-2857.278-3778.3Z"/><path class="a" d="M-2843.109-3774.151l-6.712-6.712a.923.923,0,0,0-1.306,0,.925.925,0,0,0,0,1.306l6.712,6.712a.924.924,0,0,0,.653.27.92.92,0,0,0,.653-.27A.923.923,0,0,0-2843.109-3774.151Z"/></g></svg>