<svg xmlns="http://www.w3.org/2000/svg" width="21.405" height="20.583" viewBox="0 0 21.405 20.583">
  <path  d="M-3055.759-1853.348c.714,1.146,1.472,2.464,2.226,3.87a2.826,2.826,0,0,0,1.988,1.443c1.5.269,2.921.555,4.175.846a1.424,1.424,0,0,1,.776,2.294c-.882,1.065-1.874,2.205-2.967,3.369a2.825,2.825,0,0,0-.742,2.275c.187,1.517.334,2.95.446,4.267a1.424,1.424,0,0,1-1.957,1.439c-1.345-.553-2.553-1.185-3.926-1.859a2.813,2.813,0,0,0-2.449-.013c-1.369.652-2.656,1.278-3.911,1.811a1.425,1.425,0,0,1-1.977-1.431c.112-1.3.257-2.717.442-4.214a2.822,2.822,0,0,0-.743-2.275c-1.092-1.164-2.084-2.3-2.966-3.369a1.425,1.425,0,0,1,.775-2.295c1.254-.29,2.675-.576,4.176-.845a2.822,2.822,0,0,0,1.987-1.443c.754-1.406,1.512-2.724,2.227-3.87A1.425,1.425,0,0,1-3055.759-1853.348Z" transform="translate(3067.672 1854.02)" fill="#ffd400"/>
</svg>
