<svg xmlns="http://www.w3.org/2000/svg" width="30.155" height="29.802" viewBox="0 0 30.155 29.802">
  <g id="Сгруппировать_524" data-name="Сгруппировать 524" transform="translate(-2416.182 2766.202)">
    <g id="Сгруппировать_515" data-name="Сгруппировать 515">
      <g id="Сгруппировать_514" data-name="Сгруппировать 514">
        <path id="Контур_346" data-name="Контур 346" d="M2442.772-2750.543a7.671,7.671,0,0,0-3.134-2.774.589.589,0,0,0-.786.276.589.589,0,0,0,.275.786,6.516,6.516,0,0,1,3.676,5.842,6.493,6.493,0,0,1-.755,3.039.588.588,0,0,0,.243.8.587.587,0,0,0,.276.07.59.59,0,0,0,.521-.313,7.672,7.672,0,0,0,.893-3.592A7.627,7.627,0,0,0,2442.772-2750.543Z" fill="#00b5f1"/>
      </g>
    </g>
    <g id="Сгруппировать_517" data-name="Сгруппировать 517">
      <g id="Сгруппировать_516" data-name="Сгруппировать 516">
        <path id="Контур_347" data-name="Контур 347" d="M2437.247-2754.069h-.039a.588.588,0,0,0-.589.589.589.589,0,0,0,.589.589h.037a.589.589,0,0,0,.589-.586A.589.589,0,0,0,2437.247-2754.069Z" fill="#00b5f1"/>
      </g>
    </g>
    <g id="Сгруппировать_519" data-name="Сгруппировать 519">
      <g id="Сгруппировать_518" data-name="Сгруппировать 518">
        <path id="Контур_348" data-name="Контур 348" d="M2433.521-2740.57a6.518,6.518,0,0,1-3.675-5.843,6.486,6.486,0,0,1,.755-3.038.59.59,0,0,0-.243-.8.589.589,0,0,0-.8.243,7.68,7.68,0,0,0-.893,3.592,7.636,7.636,0,0,0,1.208,4.13,7.682,7.682,0,0,0,3.135,2.775.592.592,0,0,0,.255.058.59.59,0,0,0,.531-.334A.59.59,0,0,0,2433.521-2740.57Z" fill="#00b5f1"/>
      </g>
    </g>
    <g id="Сгруппировать_521" data-name="Сгруппировать 521">
      <g id="Сгруппировать_520" data-name="Сгруппировать 520">
        <path id="Контур_349" data-name="Контур 349" d="M2435.441-2739.934h-.034a.589.589,0,0,0-.592.586.59.59,0,0,0,.586.592h.04a.589.589,0,0,0,.589-.589A.589.589,0,0,0,2435.441-2739.934Z" fill="#00b5f1"/>
      </g>
    </g>
    <g id="Сгруппировать_523" data-name="Сгруппировать 523">
      <g id="Сгруппировать_522" data-name="Сгруппировать 522">
        <path id="Контур_350" data-name="Контур 350" d="M2439-2756.062a2.718,2.718,0,0,0-.262-.481h1.533a2.713,2.713,0,0,0,2.71-2.709,2.713,2.713,0,0,0-2.71-2.709h-4.716a2.7,2.7,0,0,0,.476-1.532,2.712,2.712,0,0,0-2.709-2.709h-14.43a2.712,2.712,0,0,0-2.709,2.709,2.712,2.712,0,0,0,2.709,2.709h4.716a2.694,2.694,0,0,0-.476,1.532,2.691,2.691,0,0,0,.476,1.531h-1.536a2.712,2.712,0,0,0-2.709,2.709,2.7,2.7,0,0,0,1.026,2.121,2.7,2.7,0,0,0-1.026,2.12,2.7,2.7,0,0,0,1.026,2.12,2.7,2.7,0,0,0-1.026,2.12,2.705,2.705,0,0,0,1.026,2.121,2.7,2.7,0,0,0-1.026,2.12,2.712,2.712,0,0,0,2.709,2.709h6.941a9.987,9.987,0,0,0,7.312,3.181,10.025,10.025,0,0,0,10.013-10.013A10.03,10.03,0,0,0,2439-2756.062Zm1.271-4.722a1.533,1.533,0,0,1,1.532,1.532,1.533,1.533,0,0,1-1.532,1.531h-14.429a1.533,1.533,0,0,1-1.532-1.531,1.533,1.533,0,0,1,1.532-1.532Zm-21.379-1.177a1.532,1.532,0,0,1-1.531-1.532,1.532,1.532,0,0,1,1.531-1.531h14.43a1.533,1.533,0,0,1,1.531,1.531,1.533,1.533,0,0,1-1.531,1.532Zm3.18,5.418h14.43a1.525,1.525,0,0,1,.668.154c-.278-.024-.56-.036-.845-.036a9.982,9.982,0,0,0-7.085,2.945h-7.168a1.533,1.533,0,0,1-1.531-1.532A1.533,1.533,0,0,1,2422.071-2756.543Zm0,4.241h6.162a9.974,9.974,0,0,0-1.514,3.062h-4.648a1.533,1.533,0,0,1-1.531-1.531A1.533,1.533,0,0,1,2422.071-2752.3Zm0,4.24h4.377a10.068,10.068,0,0,0-.136,1.649,10.116,10.116,0,0,0,.1,1.414h-4.341a1.533,1.533,0,0,1-1.531-1.532A1.533,1.533,0,0,1,2422.071-2748.062Zm0,7.3a1.533,1.533,0,0,1-1.531-1.531,1.533,1.533,0,0,1,1.531-1.531h4.582a9.967,9.967,0,0,0,1.413,3.062Zm14.253,3.181a8.844,8.844,0,0,1-8.834-8.835,8.844,8.844,0,0,1,8.834-8.834,8.844,8.844,0,0,1,8.835,8.834A8.845,8.845,0,0,1,2436.324-2737.578Z" fill="#00b5f1"/>
      </g>
    </g>
  </g>
</svg>
