<svg xmlns="http://www.w3.org/2000/svg" width="36.892" height="23.336" viewBox="0 0 36.892 23.336">
  <g id="Сгруппировать_513" data-name="Сгруппировать 513" transform="translate(-2256.181 2762.969)">
    <g id="Сгруппировать_502" data-name="Сгруппировать 502">
      <g id="Сгруппировать_501" data-name="Сгруппировать 501">
        <path id="Контур_340" data-name="Контур 340" d="M2290.49-2753.076l-.955-3.822a.577.577,0,0,0,.457-.564v-.617a2.429,2.429,0,0,0-2.426-2.426h-4.351v-1.271a1.2,1.2,0,0,0-1.194-1.193H2259.84a1.194,1.194,0,0,0-1.194,1.193v10.475a.577.577,0,0,0,.577.578.578.578,0,0,0,.578-.578v-10.475a.038.038,0,0,1,.039-.038h22.181a.038.038,0,0,1,.038.038v10.475a.578.578,0,0,0,.578.578.578.578,0,0,0,.578-.578v-.655h6.817a1.891,1.891,0,0,1,1.795,1.31h-1.8a.577.577,0,0,0-.578.577v1.233a1.812,1.812,0,0,0,1.81,1.81h.655v2.541h-1.511a3.664,3.664,0,0,0-3.457-2.465,3.664,3.664,0,0,0-3.457,2.465h-.278v-4.351a.578.578,0,0,0-.578-.578.578.578,0,0,0-.578.578v4.351h-11.984a3.666,3.666,0,0,0-3.458-2.465,3.664,3.664,0,0,0-3.457,2.465h-3.32a.038.038,0,0,1-.039-.039v-1.27h2.5a.578.578,0,0,0,.578-.578.578.578,0,0,0-.578-.578h-5.545a.578.578,0,0,0-.578.578.578.578,0,0,0,.578.578h1.887v1.27a1.194,1.194,0,0,0,1.194,1.194h3.12v.039a3.662,3.662,0,0,0,3.658,3.658,3.663,3.663,0,0,0,3.659-3.658v-.039h13.018v.039a3.662,3.662,0,0,0,3.658,3.658,3.662,3.662,0,0,0,3.658-3.658v-.039h1.888a.577.577,0,0,0,.578-.577v-6.162A3.046,3.046,0,0,0,2290.49-2753.076Zm-7.275-6.273h4.351a1.272,1.272,0,0,1,1.271,1.27v.039h-5.622Zm0,6.238v-3.774h5.133l.943,3.774Zm-16.6,12.323a2.506,2.506,0,0,1-2.5-2.5,2.506,2.506,0,0,1,2.5-2.5,2.506,2.506,0,0,1,2.5,2.5A2.506,2.506,0,0,1,2266.617-2740.788Zm20.333,0a2.506,2.506,0,0,1-2.5-2.5,2.506,2.506,0,0,1,2.5-2.5,2.506,2.506,0,0,1,2.5,2.5A2.506,2.506,0,0,1,2286.95-2740.788Zm4.968-7.394h-.655a.655.655,0,0,1-.655-.654v-.655h1.31v1.309Z" fill="#00b5f1"/>
      </g>
    </g>
    <g id="Сгруппировать_504" data-name="Сгруппировать 504">
      <g id="Сгруппировать_503" data-name="Сгруппировать 503">
        <path id="Контур_341" data-name="Контур 341" d="M2266.617-2744.485a1.2,1.2,0,0,0-1.194,1.194,1.2,1.2,0,0,0,1.194,1.194,1.2,1.2,0,0,0,1.194-1.194A1.2,1.2,0,0,0,2266.617-2744.485Z" fill="#00b5f1"/>
      </g>
    </g>
    <g id="Сгруппировать_506" data-name="Сгруппировать 506">
      <g id="Сгруппировать_505" data-name="Сгруппировать 505">
        <path id="Контур_342" data-name="Контур 342" d="M2286.95-2744.485a1.2,1.2,0,0,0-1.194,1.194,1.2,1.2,0,0,0,1.194,1.194,1.2,1.2,0,0,0,1.194-1.194A1.2,1.2,0,0,0,2286.95-2744.485Z" fill="#00b5f1"/>
      </g>
    </g>
    <g id="Сгруппировать_508" data-name="Сгруппировать 508">
      <g id="Сгруппировать_507" data-name="Сгруппировать 507">
        <path id="Контур_343" data-name="Контур 343" d="M2280.172-2746.949h-8.626a.577.577,0,0,0-.577.577.577.577,0,0,0,.577.578h8.626a.578.578,0,0,0,.578-.578A.577.577,0,0,0,2280.172-2746.949Z" fill="#00b5f1"/>
      </g>
    </g>
    <g id="Сгруппировать_510" data-name="Сгруппировать 510">
      <g id="Сгруппировать_509" data-name="Сгруппировать 509">
        <path id="Контур_344" data-name="Контур 344" d="M2265.385-2749.414h-7.394a.577.577,0,0,0-.577.578.577.577,0,0,0,.577.577h7.394a.577.577,0,0,0,.578-.577A.578.578,0,0,0,2265.385-2749.414Z" fill="#00b5f1"/>
      </g>
    </g>
    <g id="Сгруппировать_512" data-name="Сгруппировать 512">
      <g id="Сгруппировать_511" data-name="Сгруппировать 511">
        <path id="Контур_345" data-name="Контур 345" d="M2276.268-2757.255a.579.579,0,0,0-.817,0l-5.137,5.137-2.672-2.672a.577.577,0,0,0-.817,0,.577.577,0,0,0,0,.817l3.081,3.08a.573.573,0,0,0,.408.17.577.577,0,0,0,.409-.17l5.545-5.545A.579.579,0,0,0,2276.268-2757.255Z" fill="#00b5f1"/>
      </g>
    </g>
  </g>
</svg>
