<svg xmlns="http://www.w3.org/2000/svg" width="26" height="26" viewBox="0 0 26 26">
  <g id="Сгруппировать_6" data-name="Сгруппировать 6" transform="translate(2772.121 3795.058)">
    <g id="Сгруппировать_5" data-name="Сгруппировать 5">
      <g id="Сгруппировать_3" data-name="Сгруппировать 3">
        <path id="Контур_5" data-name="Контур 5" d="M-2759.121-3782.78a6.145,6.145,0,0,1-6.139-6.139,6.145,6.145,0,0,1,6.139-6.139,6.146,6.146,0,0,1,6.139,6.139A6.146,6.146,0,0,1-2759.121-3782.78Zm0-10.113a3.978,3.978,0,0,0-3.975,3.974,3.979,3.979,0,0,0,3.975,3.974,3.979,3.979,0,0,0,3.974-3.974A3.978,3.978,0,0,0-2759.121-3792.893Z" fill="#fff"/>
      </g>
      <g id="Сгруппировать_4" data-name="Сгруппировать 4">
        <path id="Контур_6" data-name="Контур 6" d="M-2747.2-3769.058h-23.835a1.08,1.08,0,0,1-1.082-1.083,13.071,13.071,0,0,1,3.879-9.339A8.9,8.9,0,0,1-2762-3782h5.762a8.889,8.889,0,0,1,6.24,2.52,13.075,13.075,0,0,1,3.879,9.339A1.08,1.08,0,0,1-2747.2-3769.058Zm-22.7-2.165h21.564a10.88,10.88,0,0,0-3.189-6.718,6.726,6.726,0,0,0-4.712-1.889H-2762a6.716,6.716,0,0,0-4.712,1.889,10.877,10.877,0,0,0-3.189,6.718Z" fill="#fff"/>
      </g>
    </g>
  </g>
</svg>
