<svg xmlns="http://www.w3.org/2000/svg" width="31.25" height="31.25" viewBox="0 0 31.25 31.25">
  <g id="Сгруппировать_39" data-name="Сгруппировать 39" transform="translate(2773.947 3873.268)">
    <g id="Сгруппировать_30" data-name="Сгруппировать 30">
      <g id="Сгруппировать_29" data-name="Сгруппировать 29">
        <path id="Контур_15" data-name="Контур 15" d="M-2749.476-3848.992l-3.117-3.116a2.574,2.574,0,0,0-1.834-.76,2.578,2.578,0,0,0-1.834.76l-1.087,1.087a2.906,2.906,0,0,1-2.655.613,6.956,6.956,0,0,1-3.562-1.992,6.953,6.953,0,0,1-1.992-3.563,2.9,2.9,0,0,1,.613-2.654l1.087-1.087a2.578,2.578,0,0,0,.76-1.835,2.578,2.578,0,0,0-.76-1.834l-3.117-3.116a2.576,2.576,0,0,0-1.834-.76,2.577,2.577,0,0,0-1.834.76l-1.087,1.087a7.49,7.49,0,0,0-2.009,3.853,11.7,11.7,0,0,0,.058,4.682,19.032,19.032,0,0,0,5.2,9.381,19.018,19.018,0,0,0,9.381,5.2,13.08,13.08,0,0,0,2.577.268,10.29,10.29,0,0,0,2.1-.21,7.481,7.481,0,0,0,3.853-2.008l1.087-1.087A2.6,2.6,0,0,0-2749.476-3848.992Zm-1.323,2.346-1.087,1.087c-1.488,1.488-3.983,2.013-6.844,1.439a17.108,17.108,0,0,1-8.426-4.689,17.107,17.107,0,0,1-4.689-8.426c-.574-2.861-.05-5.356,1.439-6.844l1.087-1.088a.719.719,0,0,1,.511-.211.715.715,0,0,1,.511.212l3.117,3.116a.717.717,0,0,1,.212.511.717.717,0,0,1-.212.512l-1.087,1.087a4.705,4.705,0,0,0-1.131,4.314,8.84,8.84,0,0,0,2.51,4.549,8.849,8.849,0,0,0,4.549,2.51,4.711,4.711,0,0,0,4.314-1.131l1.087-1.087a.714.714,0,0,1,.511-.212.714.714,0,0,1,.511.212l3.117,3.116A.724.724,0,0,1-2750.8-3846.646Z" fill="#fff"/>
      </g>
    </g>
    <g id="Сгруппировать_32" data-name="Сгруппировать 32">
      <g id="Сгруппировать_31" data-name="Сгруппировать 31">
        <path id="Контур_16" data-name="Контур 16" d="M-2745.248-3870.717a8.652,8.652,0,0,0-6.158-2.551,8.652,8.652,0,0,0-6.158,2.551,8.635,8.635,0,0,0-2.464,4.929,8.8,8.8,0,0,0,.758,4.974l-1.156,4.122a.934.934,0,0,0,.239.914.934.934,0,0,0,.661.274.96.96,0,0,0,.253-.035l4.122-1.156a8.8,8.8,0,0,0,4.973.758,8.643,8.643,0,0,0,4.93-2.464,8.652,8.652,0,0,0,2.551-6.158A8.652,8.652,0,0,0-2745.248-3870.717Zm-1.323,10.993a6.8,6.8,0,0,1-8.045,1.2.939.939,0,0,0-.439-.109.913.913,0,0,0-.253.035l-2.867.8.8-2.868a.936.936,0,0,0-.075-.692,6.8,6.8,0,0,1,1.205-8.044,6.791,6.791,0,0,1,4.835-2,6.789,6.789,0,0,1,4.835,2A6.845,6.845,0,0,1-2746.571-3859.724Z" fill="#fff"/>
      </g>
    </g>
    <g id="Сгруппировать_34" data-name="Сгруппировать 34">
      <g id="Сгруппировать_33" data-name="Сгруппировать 33">
        <path id="Контур_17" data-name="Контур 17" d="M-2754.714-3865.512a.946.946,0,0,0-.936.935.952.952,0,0,0,.936.936.946.946,0,0,0,.935-.936A.951.951,0,0,0-2754.714-3865.512Z" fill="#fff"/>
      </g>
    </g>
    <g id="Сгруппировать_36" data-name="Сгруппировать 36">
      <g id="Сгруппировать_35" data-name="Сгруппировать 35">
        <path id="Контур_18" data-name="Контур 18" d="M-2751.388-3865.512a.946.946,0,0,0-.936.935.952.952,0,0,0,.936.936.946.946,0,0,0,.935-.936A.952.952,0,0,0-2751.388-3865.512Z" fill="#fff"/>
      </g>
    </g>
    <g id="Сгруппировать_38" data-name="Сгруппировать 38">
      <g id="Сгруппировать_37" data-name="Сгруппировать 37">
        <path id="Контур_19" data-name="Контур 19" d="M-2748.063-3865.512a.945.945,0,0,0-.935.935.952.952,0,0,0,.935.936.946.946,0,0,0,.936-.936A.952.952,0,0,0-2748.063-3865.512Z" fill="#fff"/>
      </g>
    </g>
  </g>
</svg>
