<svg xmlns="http://www.w3.org/2000/svg" width="18.5" height="18.5" viewBox="0 0 18.5 18.5">
  <g id="Сгруппировать_577" data-name="Сгруппировать 577" transform="translate(-1193.092 2275.338)">
    <path id="Контур_367" data-name="Контур 367" d="M1201.744-2263.034h0a.612.612,0,0,1-.47-.213l-3.225-3.5a.639.639,0,0,1,.043-.9.639.639,0,0,1,.9.043l2.776,3.011,7.689-7.667a.62.62,0,0,1,.9,0,.638.638,0,0,1,0,.9l-8.159,8.137A.579.579,0,0,1,1201.744-2263.034Z" fill="#00b5f1" stroke="#00b5f1" stroke-miterlimit="10" stroke-width="1.5"/>
    <path id="Контур_368" data-name="Контур 368" d="M1202.342-2257.588a8.522,8.522,0,0,1-8.5-8.5,8.522,8.522,0,0,1,8.5-8.5.63.63,0,0,1,.641.641.63.63,0,0,1-.641.641,7.237,7.237,0,0,0-7.219,7.218,7.237,7.237,0,0,0,7.219,7.219,7.237,7.237,0,0,0,7.218-7.219.629.629,0,0,1,.641-.64.629.629,0,0,1,.641.64A8.522,8.522,0,0,1,1202.342-2257.588Z" fill="#00b5f1" stroke="#00b5f1" stroke-miterlimit="10" stroke-width="1.5"/>
  </g>
</svg>
